<svg viewBox="1 1 511.99998 511.99998" xmlns="http://www.w3.org/2000/svg"><path d="m512 256c0 66.433594-25.308594 126.964844-66.8125 172.460938-9.613281 10.542968-20.101562 20.28125-31.34375 29.101562-18.933594 14.847656-40.011719 27.082031-62.695312 36.171875-10.144532 4.066406-20.605469 7.503906-31.347657 10.25-20.394531 5.234375-41.773437 8.015625-63.800781 8.015625-21.515625 0-42.402344-2.652344-62.359375-7.660156-10.730469-2.675782-21.199219-6.039063-31.347656-10.03125-95.03125-37.394532-162.292969-129.996094-162.292969-238.308594 0-141.386719 114.613281-256 256-256s256 114.613281 256 256zm0 0" fill="#66ccb5"/><path d="m162.292969 398.441406h31.347656v105.898438c-10.730469-2.675782-21.199219-6.039063-31.347656-10.03125zm0 0" fill="#3b3b3b"/><path d="m139.285156 359.769531h77.351563v77.347657h-77.351563zm0 0" fill="#4a4a4a"/><path d="m139.285156 359.769531h26.191406v77.347657h-26.191406zm0 0" fill="#3b3b3b"/><path d="m135.070312 19.066406v133.460938h-38.132812v-133.460938c0-10.523437 8.542969-19.066406 19.066406-19.066406 2.222656 0 4.359375.382812 6.355469 1.09375 7.398437 2.605469 12.710937 9.675781 12.710937 17.972656zm0 0" fill="#bababa"/><path d="m258.984375 19.066406v133.460938h-38.117187v-133.460938c0-10.523437 8.527343-19.066406 19.066406-19.066406 2.226562 0 4.359375.382812 6.355468 1.082031 7.398438 2.617188 12.695313 9.6875 12.695313 17.984375zm0 0" fill="#bababa"/><path d="m135.070312 19.066406v133.460938h-25.421874v-133.460938c0-8.296875 5.3125-15.367187 12.710937-17.972656 7.398437 2.605469 12.710937 9.675781 12.710937 17.972656zm0 0" fill="#ccc"/><path d="m258.984375 19.066406v133.460938h-25.417969v-133.460938c0-8.296875 5.3125-15.367187 12.722656-17.984375 7.398438 2.617188 12.695313 9.6875 12.695313 17.984375zm0 0" fill="#ccc"/><path d="m285.679688 144.417969v145.804687c0 46.878906-38.007813 84.894532-84.882813 84.894532h-45.65625c-46.890625 0-84.894531-38.015626-84.894531-84.894532v-145.804687zm0 0" fill="#3b3b3b"/><path d="m285.679688 201.324219v88.898437c0 46.878906-38.007813 84.894532-84.882813 84.894532h-15.152344c-46.890625 0-84.894531-38.015626-84.894531-84.894532v-88.898437zm0 0" fill="#4a4a4a"/><path d="m312.371094 162.53125c0 13.167969-10.664063 23.832031-23.832032 23.832031h-221.152343c-6.585938 0-12.535157-2.667969-16.855469-6.976562-4.308594-4.308594-6.976562-10.269531-6.976562-16.855469 0-13.152344 10.675781-23.832031 23.832031-23.832031h221.152343c6.582032 0 12.542969 2.671875 16.851563 6.980469 4.3125 4.320312 6.980469 10.269531 6.980469 16.851562zm0 0" fill="#3b3b3b"/><path d="m312.371094 162.53125c0 13.167969-10.664063 23.832031-23.832032 23.832031h-153.785156c-6.585937 0-12.535156-2.667969-16.855468-6.976562-4.308594-4.308594-6.976563-10.269531-6.976563-16.855469 0-13.152344 10.675781-23.832031 23.832031-23.832031h153.785156c6.582032 0 12.542969 2.671875 16.851563 6.980469 4.3125 4.320312 6.980469 10.269531 6.980469 16.851562zm0 0" fill="#4a4a4a"/><path d="m152.347656 220.390625h56.917969l-33.011719 50.085937h30.734375l-52.265625 77.023438 9.007813-61.085938h-17.074219zm0 0" fill="#ffd861"/><path d="m445.1875 251.683594v176.777344c-9.613281 10.542968-20.101562 20.28125-31.34375 29.101562v-205.878906c0-17.28125-14.066406-31.335938-31.347656-31.335938-17.285156 0-31.347656 14.054688-31.347656 31.335938v242.050781c-10.144532 4.066406-20.605469 7.503906-31.347657 10.25v-252.300781c0-34.5625 28.117188-62.683594 62.695313-62.683594 34.566406 0 62.691406 28.121094 62.691406 62.683594zm0 0" fill="#3b3b3b"/></svg>